<?xml version="1.0" encoding="UTF-8" standalone="no"?>
<svg
   version="1.0"
   width="24.000000pt"
   height="24.000000pt"
   viewBox="0 0 24.000000 24.000000"
   preserveAspectRatio="xMidYMid meet"
   id="svg8"
   sodipodi:docname="518a6abf3ace6ec5765791945a9d9112.svg"
   xmlns:inkscape="http://www.inkscape.org/namespaces/inkscape"
   xmlns:sodipodi="http://sodipodi.sourceforge.net/DTD/sodipodi-0.dtd"
   xmlns="http://www.w3.org/2000/svg"
   xmlns:svg="http://www.w3.org/2000/svg">
  <defs
     id="defs12" />
  <sodipodi:namedview
     id="namedview10"
     pagecolor="#ffffff"
     bordercolor="#666666"
     borderopacity="1.0"
     inkscape:pageshadow="2"
     inkscape:pageopacity="0.0"
     inkscape:pagecheckerboard="0"
     inkscape:document-units="pt" />
  <metadata
     id="metadata2">
Created by potrace 1.16, written by Peter Selinger 2001-2019
</metadata>
  <g
     transform="translate(0.000000,24.000000) scale(0.002398,-0.001920)"
     fill="#000000"
     stroke="none"
     id="g6">
    <path
       d="M1265 12475 c-310 -52 -585 -195 -815 -425 -209 -208 -335 -435 -413 -739 l-21 -86 -3 -5613 c-3 -4741 -1 -5612 11 -5605 7 4 1130 827 2495 1828 1364 1001 2486 1820 2491 1820 5 0 1127 -819 2491 -1820 1365 -1001 2488 -1824 2495 -1828 12 -7 14 859 11 5600 -2 5358 -3 5611 -20 5683 -75 311 -206 550 -417 760 -213 213 -448 342 -760 417 -71 17 -254 18 -3770 19 -3022 2 -3710 -1 -3775 -11z m7395 -1012 c158 -54 272 -170 327 -333 17 -53 18 -214 21 -4598 2 -3653 0 -4542 -10 -4536 -7 4 -905 662 -1995 1461 -1090 799 -1987 1453 -1993 1453 -6 0 -908 -657 -2003 -1461 l-1992 -1460 -3 4478 c-1 2734 1 4511 7 4563 12 107 40 184 96 258 80 107 200 175 335 192 36 4 1658 7 3605 6 l3540 -1 65 -22z"
       id="path4" />
  </g>
</svg>
